<?xml version="1.0" encoding="utf-8"?>
<!-- Generator: Adobe Illustrator 21.0.0, SVG Export Plug-In . SVG Version: 6.00 Build 0)  -->
<svg version="1.1" id="Capa_1" xmlns="http://www.w3.org/2000/svg" xmlns:xlink="http://www.w3.org/1999/xlink" x="0px" y="0px"
	 viewBox="0 0 510.2 350" style="enable-background:new 0 0 510.2 350;" xml:space="preserve">
<style type="text/css">
	.st0{fill:#FAAB4F;}
	.st1{fill:#3C2415;}
	.st2{fill:#6B0C0F;}
	.st3{opacity:0.3;}
	.st4{fill:#84191C;}
	.st5{fill:#FFD45A;}
	.st6{fill:#F04E4C;}
	.st7{fill:#5FBC62;}
	.st8{fill:#A9D48F;}
	.st9{opacity:0.6;}
	.st10{fill:#FFFFFF;}
	.st11{fill:#F27482;}
	.st12{fill:none;stroke:#3C2415;stroke-width:3;stroke-linecap:round;stroke-linejoin:round;stroke-miterlimit:10;}
	.st13{fill:#F27482;stroke:#3C2415;stroke-linecap:round;stroke-linejoin:round;stroke-miterlimit:10;}
</style>
<g>
	<g>
		<g>
			<path class="st0" d="M166.8,225.5c-16.6,0-31.3-2.5-40.4-6.9c-4.9-2.4-7.3-14.2-7.2-17.6c0.1-2,1-3,3-3c0.7,0,1.4,0.1,2.3,0.2
				c1,0.1,2.2,0.3,3.5,0.3c0.7,0,1.4,0,2.1-0.1c8.2-1.2,43.5-5.5,63.2-5.5c4.4,0,7.8,0.2,10,0.7c7.7,1.5,11.4,5.9,10.9,13.1
				c-0.6,8-8.7,14.4-21.1,16.7C185.2,224.8,176.1,225.5,166.8,225.5L166.8,225.5z"/>
			<path class="st1" d="M193.2,193.6c4.1,0,7.6,0.2,9.9,0.7c8.9,1.8,10.7,7,10.3,12.3c-0.6,8-9.1,14-20.5,16.1
				c-7.7,1.4-16.9,2.2-26,2.2c-15.1,0-30.3-2.1-40.1-6.8c-4.5-2.2-7-13.5-6.8-16.9c0.1-1.9,0.9-2.3,2.3-2.3c1.4,0,3.4,0.5,5.8,0.5
				c0.7,0,1.4,0,2.2-0.2C139.4,197.7,174.1,193.6,193.2,193.6 M193.2,192.2c-19.8,0-55,4.3-63.3,5.5c-0.6,0.1-1.3,0.1-2,0.1
				c-1.2,0-2.4-0.1-3.4-0.3c-0.8-0.1-1.6-0.2-2.3-0.2c-2.3,0-3.6,1.2-3.7,3.6c-0.1,3.6,2.3,15.7,7.6,18.2c9.2,4.4,24,7,40.7,7
				c9.3,0,18.4-0.8,26.3-2.2c12.7-2.4,21-9,21.6-17.3c0.6-7.5-3.3-12.1-11.4-13.8C201.1,192.5,197.7,192.2,193.2,192.2L193.2,192.2z
				"/>
		</g>
	</g>
	<g>
		<path class="st0" d="M203.1,194.2c-12.8-2.6-61.7,3.2-72.9,4.8c-5.8,0.9-10.1-2.3-10.3,2c0,0.1,0,0.3,0,0.5
			c16.9-2.2,56.1-6.4,67.4-4.1c8.9,1.8,10.7,7,10.3,12.3c-0.5,6.2-5.7,11.2-13.4,14.1c3-0.3,6-0.8,8.7-1.3
			c11.4-2.1,19.9-8.1,20.5-16.1C213.8,201.3,212,196,203.1,194.2z"/>
	</g>
	<g>
		<g>
			<path class="st2" d="M161.7,208.7c-41.1,0-42.6-3.1-43.8-5.3c-0.1-0.2-0.2-0.3-0.2-0.4c-1.9-2.5-0.7-16.7,0.3-18.4
				c1-1.6,4.1-4.6,5.4-5.3c0.9-0.4,4.9-0.7,10.5-1c1.8-0.1,3.4-0.2,4.3-0.3c6.8-0.6,13.8-0.6,19.8-0.6l6.1,0c1.2,0,2.3,0,3.4,0
				c3.9,0,7.8-0.3,11.6-0.5c3.8-0.2,7.8-0.4,11.7-0.5c1,0,2.1,0,3.1,0c1.2,0,2.5-0.1,3.7-0.1c0.9,0,1.7,0,2.5,0c0.6,0,1.2,0,1.8,0
				c2.2,0,4.5,0,6.7,0.8c3.7,1.3,6.8,5.4,6.9,9c0,0.1,0.2,13.8-0.6,15.4l0,0.1c-0.9,2-3.1,6.7-48.2,6.9
				C164.9,208.7,163.3,208.7,161.7,208.7z"/>
			<path class="st1" d="M197.7,177.1c0.8,0,1.6,0,2.4,0c2.7,0.1,5.7-0.1,8.2,0.8c3.3,1.1,6.4,4.9,6.4,8.3c0,1.4,0.1,13.8-0.5,15.1
				c-0.8,1.6-2.4,6.3-47.6,6.6c-1.7,0-3.3,0-4.9,0c-44.6,0-42.1-3.7-43.4-5.5c-1.7-2.2-0.6-16,0.3-17.6c0.9-1.5,3.9-4.4,5.1-5
				c1.2-0.6,11.6-0.9,14.6-1.2c6.5-0.6,13.2-0.6,19.8-0.6c2,0,4,0,6.1,0c1.2,0,2.3,0,3.5,0c7.8,0,15.5-0.9,23.3-0.9
				C193.1,177.2,195.4,177.1,197.7,177.1 M197.7,175.8c-1.2,0-2.5,0-3.7,0.1c-1,0-2.1,0-3.1,0c-3.9,0-7.9,0.3-11.7,0.5
				c-3.8,0.2-7.7,0.4-11.6,0.5c-1.1,0-2.3,0-3.4,0c-1,0-2,0-3,0c-1,0-2,0-3,0c-6,0-13.1,0-19.9,0.6c-0.9,0.1-2.5,0.2-4.3,0.3
				c-7.1,0.4-9.8,0.6-10.7,1c-1.5,0.7-4.7,3.9-5.7,5.5c-1,1.6-1.3,8.4-1.3,9.2c-0.2,5.3,0.1,8.7,1.1,9.9c0,0.1,0.1,0.2,0.2,0.3
				c0.7,1.5,1.9,2.9,7.7,3.9c6.7,1.2,18.7,1.8,36.7,1.8c1.6,0,3.2,0,4.9,0c19.2-0.1,32.8-1,40.5-2.8c2.9-0.6,5-1.4,6.3-2.3
				c1.3-0.9,1.8-1.8,2-2.3l0-0.1c0.8-1.7,0.7-13.4,0.7-15.7c-0.1-3.9-3.4-8.3-7.4-9.6c-2.2-0.8-4.6-0.8-6.9-0.8c-0.6,0-1.2,0-1.8,0
				C199.4,175.8,198.6,175.8,197.7,175.8L197.7,175.8z"/>
		</g>
	</g>
	<g class="st3">
		<path class="st4" d="M214.8,186.3c-0.1-3.4-3.2-7.2-6.4-8.3c-0.2-0.1-0.5-0.1-0.7-0.2c1.6,1.7,2.8,3.9,2.9,6
			c0,1.4,0.1,13.8-0.5,15.1c-0.8,1.6-2.4,6.3-47.6,6.6c-27.1,0.2-38.6-0.9-43.7-2.3c1,2,3.4,5.1,48,4.8c45.2-0.3,46.9-5,47.6-6.6
			C214.9,200.1,214.8,187.7,214.8,186.3z"/>
	</g>
	<g>
		<path class="st5" d="M218.6,207.6c-6.6,0-17.3-6.4-24.4-10.6c-0.7-0.4-1.3-0.8-1.9-1.1c-1-0.6-2.4-1.5-4.1-2.6
			c-5.8-3.7-14.5-9.4-18.6-9.4l-0.7,0v-1.5l0.3-0.2c3.2-2,10.4-2.7,16.2-3.2c1-0.1,2-0.2,2.9-0.3c4.7-0.5,9.7-0.8,14.9-1
			c0.8,0,1.4-0.1,2-0.1c3.1,0,4.2,0.6,6,2.5c4.2,4.3,6.9,9.2,7.9,14.2c0.1,0.5,0.3,1.3,0.5,2.1c1.2,4.4,2.2,8.5,0.8,10.3
			C220.1,207.3,219.4,207.6,218.6,207.6L218.6,207.6z"/>
		<path class="st1" d="M205.3,178.3c3,0,3.8,0.5,5.5,2.2c4.2,4.3,6.7,9.1,7.7,13.9c0.6,2.9,4.1,12.5,0.1,12.5c0,0,0,0,0,0
			c-7.1,0-19.5-7.8-25.9-11.6c-4.7-2.7-17.5-12-23-12.1v-0.5c3.7-2.3,13.3-2.8,18.8-3.4c4.8-0.5,10-0.8,14.8-1
			C204.1,178.3,204.7,178.3,205.3,178.3 M205.3,176.9c-0.6,0-1.2,0-2,0.1c-5.2,0.2-10.2,0.5-14.9,1c-0.9,0.1-1.9,0.2-2.9,0.3
			c-5.8,0.6-13.1,1.3-16.5,3.3l-0.7,0.4v0.8v0.5v1.4l1.4,0c4,0,12.9,5.8,18.3,9.3c1.6,1.1,3,2,4.1,2.6c0.6,0.3,1.2,0.7,1.9,1.1
			c7.1,4.2,17.9,10.7,24.7,10.7c1.3,0,2-0.6,2.4-1.2c1.6-2.1,0.6-6.1-0.7-10.9c-0.2-0.9-0.4-1.6-0.5-2.1c-1-5.1-3.8-10.2-8.1-14.6
			C209.9,177.6,208.6,176.9,205.3,176.9L205.3,176.9z"/>
	</g>
	<g>
		<path class="st5" d="M112.9,206.4c-0.8,0-1.4-0.3-1.9-0.9c-1.4-1.8-0.4-5.9,0.8-10.3c0.2-0.9,0.4-1.6,0.5-2.1
			c1-5,3.7-9.9,7.9-14.2c1.8-1.9,2.9-2.5,6-2.5c0.5,0,1.2,0,2,0.1c5.2,0.2,10.2,0.5,14.9,1c0.9,0.1,1.9,0.2,2.9,0.3
			c5.8,0.6,12.9,1.2,16.2,3.2l0.3,0.2v1.5l-0.7,0c-4.2,0-12.9,5.7-18.6,9.4c-1.6,1.1-3,2-4.1,2.6c-0.6,0.3-1.2,0.7-1.9,1.1
			C130.2,200,119.5,206.4,112.9,206.4L112.9,206.4z"/>
		<path class="st1" d="M126.2,177.1c0.6,0,1.2,0,2,0.1c4.9,0.2,10,0.5,14.8,1c5.5,0.6,15.1,1.2,18.8,3.4v0.5
			c-5.6,0.1-18.4,9.3-23,12.1c-6.5,3.8-18.8,11.6-25.9,11.6c0,0,0,0,0,0c-3.9,0-0.5-9.6,0.1-12.5c1-4.8,3.6-9.6,7.7-13.9
			C122.4,177.6,123.3,177.1,126.2,177.1 M126.2,175.7L126.2,175.7c-3.4,0-4.6,0.7-6.5,2.7c-4.2,4.4-7,9.4-8.1,14.6
			c-0.1,0.5-0.3,1.2-0.5,2.1c-1.3,4.7-2.2,8.8-0.7,10.9c0.4,0.5,1.1,1.1,2.4,1.2c6.8,0,17.6-6.4,24.8-10.7c0.7-0.4,1.3-0.8,1.9-1.1
			c1-0.6,2.4-1.5,4.1-2.6c5.3-3.5,14.3-9.2,18.3-9.3l1.4,0V182v-0.5v-0.8l-0.7-0.4c-3.4-2.1-10.6-2.8-16.5-3.3c-1-0.1-2-0.2-2.9-0.3
			c-4.7-0.5-9.8-0.8-14.9-1C127.4,175.7,126.8,175.7,126.2,175.7L126.2,175.7z"/>
	</g>
	<g>
		<g>
			<path class="st6" d="M137.8,203.1c-11,0-19.7-4.5-19.7-10.1c0-5.7,8.6-10.1,19.7-10.1c11,0,19.7,4.5,19.7,10.1
				C157.5,198.6,148.8,203.1,137.8,203.1z"/>
			<path class="st1" d="M137.8,183.5c10.5,0,19,4.2,19,9.5c0,5.2-8.5,9.5-19,9.5c-10.5,0-19-4.2-19-9.5
				C118.8,187.7,127.3,183.5,137.8,183.5 M137.8,182.1c-11.4,0-20.3,4.8-20.3,10.8c0,6.1,8.9,10.8,20.3,10.8
				c11.4,0,20.3-4.8,20.3-10.8C158.2,186.9,149.2,182.1,137.8,182.1L137.8,182.1z"/>
		</g>
		<g>
			<path class="st6" d="M137.8,200c-9.3,0-16.5-3.8-16.5-8.6c0-4.8,7.3-8.6,16.5-8.6c9.3,0,16.5,3.8,16.5,8.6
				C154.4,196.2,147.1,200,137.8,200z"/>
			<path class="st1" d="M137.8,183.5c8.8,0,15.9,3.5,15.9,7.9c0,4.4-7.1,7.9-15.9,7.9c-8.8,0-15.9-3.5-15.9-7.9
				C122,187,129.1,183.5,137.8,183.5 M137.8,182.1c-9.7,0-17.2,4.1-17.2,9.3c0,5.2,7.6,9.3,17.2,9.3c9.7,0,17.2-4.1,17.2-9.3
				C155,186.2,147.5,182.1,137.8,182.1L137.8,182.1z"/>
		</g>
	</g>
	<g>
		<g>
			<path class="st6" d="M175.7,206.1c-11,0-19.7-4.5-19.7-10.1c0-5.7,8.6-10.1,19.7-10.1c11,0,19.7,4.5,19.7,10.1
				C195.4,201.7,186.8,206.1,175.7,206.1z"/>
			<path class="st1" d="M175.7,186.5c10.5,0,19,4.2,19,9.5c0,5.2-8.5,9.5-19,9.5c-10.5,0-19-4.2-19-9.5
				C156.7,190.7,165.2,186.5,175.7,186.5 M175.7,185.2c-11.4,0-20.3,4.8-20.3,10.8c0,6.1,8.9,10.8,20.3,10.8
				c11.4,0,20.3-4.8,20.3-10.8C196.1,189.9,187.1,185.2,175.7,185.2L175.7,185.2z"/>
		</g>
		<g>
			<path class="st6" d="M175.7,203c-9.3,0-16.5-3.8-16.5-8.6c0-4.8,7.3-8.6,16.5-8.6c9.3,0,16.5,3.8,16.5,8.6
				C192.3,199.2,185,203,175.7,203z"/>
			<path class="st1" d="M175.7,186.5c8.8,0,15.9,3.5,15.9,7.9c0,4.4-7.1,7.9-15.9,7.9c-8.8,0-15.9-3.5-15.9-7.9
				C159.9,190,167,186.5,175.7,186.5 M175.7,185.2c-9.7,0-17.2,4.1-17.2,9.3c0,5.2,7.6,9.3,17.2,9.3c9.7,0,17.2-4.1,17.2-9.3
				C192.9,189.2,185.4,185.2,175.7,185.2L175.7,185.2z"/>
		</g>
	</g>
	<g>
		<path class="st7" d="M176.2,197.9c-0.6,0-1.3-0.1-2-0.2c-1.5-0.2-2.5-1.1-3.5-1.9c-0.8-0.6-1.5-1.2-2.4-1.5
			c-0.8-0.3-1.7-0.4-2.5-0.4c-1.6,0-3.2,0.6-4.8,1.7c-1.2,0.9-2.6,1.3-4,1.3c-1.2,0-2.4-0.4-3.4-1c-0.8-0.5-1.2-1.1-1.5-1.6
			c-0.5-0.7-0.8-1.1-1.9-1.2c-0.3,0-0.6,0-0.9,0c-0.9,0-1.5,0.2-1.9,0.5c-0.3,0.3-0.5,0.6-0.7,0.9c-0.3,0.5-0.7,1.1-1.5,1.5
			c-0.6,0.3-1.8,0.9-3.2,0.9c-1.1,0-2-0.4-2.7-1.1c-0.6-0.6-1.1-1.4-1.5-2.2c-0.7-1.2-1.2-2.2-2.3-2.4c-0.2,0-0.4-0.1-0.6-0.1
			c-1.2,0-2.4,0.7-3.7,1.4c-1.3,0.8-2.7,1.6-4.3,1.6c-1.1,0-2.1-0.4-3.1-1.2c-0.7-0.6-1-1.4-1.3-2.2c-0.3-0.7-0.5-1.3-0.9-1.5
			c-0.2-0.1-0.4-0.1-0.7-0.1c-0.8,0-2,0.4-3.4,1c-0.7,0.4-2.2,1-3.6,1h0c-1.3,0-1.9-0.5-2.3-1c-0.6-0.8-0.7-2-0.3-3.6
			c0.4-1.5,1.2-2.1,2-2.8c0.2-0.1,0.4-0.3,0.6-0.5c0.8-0.7,1.2-1.4,1.8-2.2c0,0,0.5-0.7,0.6-0.9c0.9-1.3,1.9-2.9,3.2-3.6
			c1-0.6,2.1-0.8,3.2-1.1c0.5-0.1,0.9-0.2,1.3-0.3c3.8-1.1,8.1-2.3,12.6-2.5c1.4-0.1,2.9-0.1,4.4-0.1c1.7,0,3.3,0,4.9,0.1
			c1.5,0.1,3,0.3,4.5,0.4c1.5,0.2,3.1,0.4,4.7,0.4c0.6,0,1.2,0,1.9,0c0.6,0,1.1,0,1.7,0c0.6,0,1.1,0,1.7,0c0.9,0,1.6,0,2.2,0.1
			c3.6,0.2,7.3,0.5,10.8,0.8c1.7,0.2,3.4,0.3,5.1,0.4c0.5,0,1.1,0.1,1.7,0.1c2.3,0,4.4-0.3,6.7-0.7c0.9-0.1,1.9-0.3,2.9-0.4
			c3-0.4,8.6-1.1,13.4-1.1c6.2,0,9.3,1.2,9.7,3.6c0.2,1.2,2.5,3.7,4.6,5.4c0.3,0.2,0.6,0.4,0.9,0.6c1,0.6,2.1,1.4,2.2,3.2
			c0,1.3,0,3.2-0.3,4.4c-0.6,3-3.8,4.6-6.5,4.6c-0.1,0-0.1,0-0.2,0c-1.5,0-2.9-0.4-4.3-0.8c-1.5-0.4-2.8-0.7-4.2-0.7
			c-0.2,0-0.4,0-0.5,0c-1.6,0.1-3.2,0.9-4.8,1.7c-1.7,0.8-3.4,1.7-5.5,1.8c-0.9,0.1-1.5,0.1-2.1,0.1c-2.1,0-3.6-0.4-5.1-1.2
			c-0.5-0.3-1-0.4-1.6-0.4c-0.9,0-1.9,0.3-2.7,0.9C180.2,197.2,178.4,197.9,176.2,197.9z"/>
		<path class="st1" d="M140.9,173.1c1.6,0,3.3,0,4.9,0.1c3.1,0.2,6.1,0.7,9.1,0.9c0.7,0,1.3,0,2,0c1.1,0,2.3,0,3.4,0
			c0.7,0,1.5,0,2.2,0c5.3,0.3,10.5,0.9,15.8,1.3c0.6,0,1.2,0.1,1.7,0.1c3.3,0,6.4-0.7,9.7-1.1c3-0.4,8.5-1.1,13.3-1.1
			c4.7,0,8.6,0.7,8.9,3c0.2,1.8,3.5,4.8,4.9,5.9c1.2,1,2.7,1.4,2.8,3.3c0,1.2,0,3.1-0.3,4.2c-0.6,2.7-3.6,4-5.7,4
			c-0.1,0-0.1,0-0.2,0c-2.9-0.1-5.7-1.5-8.5-1.5c-0.2,0-0.4,0-0.6,0c-3.6,0.3-6.5,3.2-10.2,3.5c-0.7,0.1-1.4,0.1-2.1,0.1
			c-1.7,0-3.2-0.2-4.7-1.1c-0.6-0.4-1.3-0.5-2-0.5c-1.1,0-2.2,0.4-3.1,1c-2.1,1.3-3.8,2-6,2c-0.6,0-1.2-0.1-1.9-0.2
			c-2.3-0.3-3.5-2.6-5.7-3.4c-0.9-0.3-1.9-0.5-2.8-0.5c-1.8,0-3.6,0.6-5.2,1.8c-1,0.8-2.3,1.2-3.5,1.2c-1,0-2.1-0.3-2.9-0.9
			c-1.7-1.2-1.5-2.8-3.8-3c-0.3,0-0.6,0-0.9,0c-0.9,0-1.8,0.1-2.4,0.7c-0.8,0.7-1,1.7-2,2.3c-0.8,0.5-1.9,0.8-2.9,0.8
			c-0.8,0-1.6-0.2-2.2-0.9c-1.5-1.5-1.9-4.4-4.2-4.8c-0.2,0-0.5-0.1-0.7-0.1c-2.9,0-5.3,3-8,3c-0.8,0-1.7-0.3-2.7-1.1
			c-1.2-1-1.1-3.2-2.4-3.8c-0.3-0.1-0.7-0.2-1-0.2c-1.3,0-2.8,0.7-3.7,1.1c-1,0.5-2.2,0.9-3.2,0.9c-1.5,0-2.6-0.9-1.9-3.7
			c0.4-1.5,1.3-2,2.4-2.9c0.9-0.8,1.5-1.7,2.2-2.8c0.9-1.3,2-3.2,3.3-3.9c1.3-0.8,3-0.9,4.4-1.3c4.1-1.2,8.2-2.3,12.4-2.5
			C138,173.2,139.5,173.1,140.9,173.1 M140.9,171.6c-1.5,0-2.9,0-4.4,0.1c-4.5,0.2-9,1.4-12.8,2.6c-0.4,0.1-0.8,0.2-1.3,0.3
			c-1.1,0.3-2.4,0.5-3.4,1.2c-1.4,0.8-2.5,2.5-3.4,3.9c-0.1,0.2-0.2,0.4-0.4,0.5c-0.1,0.1-0.2,0.3-0.3,0.4c-0.6,0.8-1,1.5-1.7,2.1
			c-0.2,0.2-0.4,0.3-0.5,0.4c-0.9,0.7-1.8,1.5-2.3,3.2c-0.5,1.8-0.3,3.3,0.5,4.3c0.4,0.6,1.3,1.3,2.9,1.3c1.5,0,3.1-0.7,3.9-1.1
			c1.2-0.6,2.4-1,3.1-1c0.2,0,0.4,0,0.4,0.1c0.2,0.1,0.4,0.7,0.6,1.1c0.3,0.8,0.7,1.8,1.5,2.5c1.1,0.9,2.4,1.4,3.6,1.4
			c1.7,0,3.2-0.9,4.6-1.7c1.2-0.7,2.3-1.3,3.3-1.3c0.2,0,0.3,0,0.5,0c0.7,0.1,1.1,0.9,1.8,2c0.4,0.8,0.9,1.7,1.6,2.4
			c0.8,0.9,2,1.3,3.3,1.3c1.6,0,2.9-0.6,3.6-1c0.9-0.5,1.4-1.2,1.7-1.7c0.2-0.3,0.4-0.5,0.6-0.7c0.3-0.2,0.7-0.4,1.4-0.4
			c0.3,0,0.6,0,0.8,0c0.7,0,0.8,0.2,1.3,0.9c0.4,0.5,0.9,1.2,1.7,1.8c1.1,0.8,2.4,1.2,3.8,1.2c1.6,0,3.2-0.5,4.4-1.5
			c1.4-1,2.8-1.5,4.3-1.5c0.8,0,1.5,0.1,2.3,0.4c0.8,0.3,1.4,0.8,2.1,1.4c1,0.8,2.2,1.8,3.9,2c0.8,0.1,1.4,0.2,2.1,0.2
			c2.3,0,4.3-0.7,6.8-2.3c0.7-0.5,1.6-0.8,2.3-0.8c0.5,0,0.9,0.1,1.2,0.3c2,1.2,4.1,1.3,5.5,1.3c0.6,0,1.3,0,2.2-0.1
			c2.1-0.2,4-1.1,5.7-1.9c1.5-0.8,3-1.5,4.5-1.6c0.2,0,0.3,0,0.5,0c1.3,0,2.6,0.3,4,0.7c1.4,0.4,2.9,0.7,4.5,0.8c0.1,0,0.1,0,0.2,0
			c3,0,6.5-1.8,7.2-5.2c0.3-1.4,0.3-3.5,0.3-4.5c-0.1-2.2-1.5-3.1-2.5-3.8c-0.3-0.2-0.6-0.4-0.8-0.6c-2.2-1.8-4.2-4.1-4.3-4.9
			c-0.5-3.8-6.2-4.3-10.4-4.3c-4.8,0-10.4,0.7-13.5,1.1l0,0c-1,0.1-2,0.3-2.9,0.4c-2.3,0.4-4.4,0.7-6.6,0.7c-0.5,0-1.1,0-1.6-0.1
			c-1.7-0.1-3.4-0.3-5.1-0.4c-3.5-0.3-7.2-0.7-10.8-0.8c-0.7,0-1.4-0.1-2.3-0.1c-0.6,0-1.1,0-1.7,0c-0.6,0-1.1,0-1.7,0
			c-0.7,0-1.3,0-1.9,0c-1.5-0.1-3.1-0.3-4.6-0.4c-1.5-0.2-3-0.4-4.5-0.4C144.3,171.7,142.6,171.6,140.9,171.6L140.9,171.6z"/>
	</g>
	<g>
		<path class="st8" d="M219.7,185.4c-0.1-1.9-1.5-2.3-2.8-3.3c-1.3-1.1-4.6-4.1-4.9-5.9c-0.6-4.6-16.2-2.6-22.2-1.9
			c-3.9,0.5-7.5,1.4-11.4,1c-5.3-0.4-10.5-1-15.8-1.3c-2.5-0.1-5,0.1-7.6-0.1c-3.1-0.1-6.1-0.7-9.1-0.9c-3-0.2-6.1-0.2-9.2,0
			c-4.2,0.2-8.3,1.3-12.4,2.5c-1.4,0.4-3.1,0.6-4.4,1.3c-0.8,0.5-1.6,1.4-2.3,2.4c20.2,13.8,49.6,9.9,73.3,5.9c4.2,0,9,0,12.5,2.8
			c-4.9,0-8.4,3.5-11.8,4.9c-0.9,0.3-1.5,1.2-2.1,2.4c1.5,0.4,3,0.3,4.7,0.2c3.7-0.3,6.6-3.2,10.2-3.5c3.1-0.2,6.1,1.4,9.1,1.5
			c2.2,0.1,5.3-1.2,5.9-4C219.6,188.5,219.7,186.6,219.7,185.4z"/>
	</g>
	<g>
		<g>
			<g>
				<path class="st0" d="M162.7,186c-15.8,0-28.1-0.9-33.7-2.4c-11.6-3.2-13.5-11-13.6-15.3c-0.2-10.7,9.3-22.5,21.2-26.4
					c9.4-3,20-4.7,29.9-4.7c22.2,0,34.6,7.7,41,14.1c5.2,5.2,7.3,13.4,5.3,20.9c-1.5,5.8-5.2,9.8-9.9,11.1
					C196.8,184.9,180.3,186,162.7,186C162.8,186,162.8,186,162.7,186z"/>
				<path class="st1" d="M166.5,137.7c15.2,0,30.5,3.8,40.6,13.9c9.8,9.7,6.7,28.1-4.4,31c-6.4,1.7-23.5,2.7-40,2.7
					c-13.9,0-27.4-0.7-33.6-2.4c-23.3-6.4-12.6-34.1,7.6-40.6C145.6,139.5,156.1,137.7,166.5,137.7 M166.5,136.6
					c-10,0-20.7,1.7-30.1,4.7c-6,1.9-11.6,5.9-15.6,11c-4,5-6.1,10.7-6,15.9c0.2,7.8,5.2,13.5,14,15.9c5.7,1.6,18.1,2.5,33.9,2.5
					c14.4,0,33.2-0.9,40.3-2.8c5-1.3,8.7-5.5,10.3-11.5c2.1-7.7-0.1-16.1-5.4-21.5c-4.9-4.9-11.3-8.6-18.8-11
					C182.4,137.7,174.8,136.6,166.5,136.6L166.5,136.6z"/>
			</g>
		</g>
		<g>
			<path class="st0" d="M207.2,151.6c-2.6-2.6-5.5-4.7-8.7-6.5c1,0.8,2.1,1.7,3,2.7c9.8,9.7,6.7,28.1-4.4,31
				c-11.9,3.2-60.2,4-73.6,0.3c-1.3-0.4-2.5-0.8-3.6-1.3c2.1,2.2,5.2,4,9.3,5.1c13.4,3.7,61.7,2.8,73.6-0.3
				C213.8,179.7,216.9,161.4,207.2,151.6z"/>
		</g>
		<g>
			<g>
				<path class="st5" d="M128.8,154.1c-0.2,0-0.4-0.1-0.6-0.3c-0.3-0.4-0.6-1.4-0.5-1.7c0.1-0.5,0.4-1,1.1-1.6
					c0.2-0.1,0.3-0.3,0.5-0.5c0.9-0.9,2-1.9,3.2-1.9c0.1,0,0.3,0,0.4,0c0.5,0.1,0.8,0.7,0.9,1.1c0.1,0.5-0.1,0.8-0.3,0.9
					c-1.6,1.4-2.6,2.2-3.9,3.4l-0.3,0.3C129.2,154,129,154.1,128.8,154.1L128.8,154.1z"/>
				<path class="st1" d="M132.5,148.8c0.1,0,0.2,0,0.3,0c0.2,0,0.5,0.6,0.4,0.8c-1.8,1.5-2.7,2.4-4.2,3.8c0,0,0,0-0.1,0
					c-0.2,0-0.5-1.1-0.4-1.2c0-0.4,0.6-0.9,0.9-1.2C130,150.3,131.3,148.8,132.5,148.8 M132.5,147.4c-1.5,0-2.7,1.2-3.7,2.1
					c-0.2,0.2-0.3,0.3-0.5,0.4c-0.8,0.7-1.2,1.4-1.3,2.1c-0.1,0.4,0.2,1.7,0.7,2.2c0.3,0.3,0.7,0.5,1.1,0.5c0.4,0,0.7-0.1,1-0.4
					l0.3-0.3c1.3-1.3,2.2-2.1,3.8-3.4c0.5-0.4,0.7-1,0.5-1.6c-0.1-0.5-0.6-1.4-1.5-1.6C132.8,147.4,132.6,147.4,132.5,147.4
					L132.5,147.4z"/>
			</g>
		</g>
		<g>
			<g>
				<path class="st5" d="M194.6,144.4l-0.1,0c-2.1-0.5-3.3-0.7-5.1-1l-0.4-0.1c-0.3-0.1-0.6-0.3-0.6-0.6c-0.1-0.7,1-1.7,1-1.8
					c0.3-0.1,0.6-0.2,1-0.2c0.4,0,0.7,0.1,1,0.1c0.2,0,0.4,0.1,0.7,0.1c1.4,0.2,3.1,0.5,3.7,1.8c0.2,0.5-0.1,1.1-0.2,1.2
					C195.2,144.3,194.9,144.4,194.6,144.4L194.6,144.4z"/>
				<path class="st1" d="M190.4,141.4c0.3,0,0.6,0.1,0.8,0.1c1.2,0.2,3.3,0.4,3.8,1.5c0.1,0.2-0.2,0.8-0.4,0.8c0,0,0,0,0,0
					c-2.2-0.5-3.5-0.7-5.5-1.1c-0.3-0.1,0.5-1,0.6-1.1C189.9,141.4,190.1,141.4,190.4,141.4 M190.4,140c-0.5,0-1,0.1-1.3,0.3
					c0,0-1.6,1.2-1.4,2.5c0.1,0.6,0.6,1.1,1.2,1.2l0.4,0.1c1.8,0.3,3,0.5,5,1c0.1,0,0.2,0,0.3,0c0.6,0,1.1-0.3,1.4-0.8
					c0.2-0.2,0.6-1.1,0.2-1.9c-0.7-1.6-2.7-1.9-4.2-2.1c-0.2,0-0.5-0.1-0.6-0.1C191.2,140.1,190.8,140,190.4,140L190.4,140z"/>
			</g>
		</g>
		<g>
			<g>
				<path class="st5" d="M138.7,144.9l-0.2-0.1c-1.9-0.8-3.2-1.3-4.8-1.9l-0.4-0.1c-0.3-0.1-0.5-0.4-0.5-0.7c0-0.7,1.2-1.5,1.3-1.6
					c0.2-0.1,0.3-0.1,0.5-0.1c0.5,0,1,0.2,1.4,0.3c0.2,0.1,0.4,0.1,0.6,0.2c1.3,0.5,3,1,3.3,2.4c0.1,0.5-0.2,0.9-0.3,1.1
					c-0.3,0.3-0.5,0.5-0.9,0.5H138.7z"/>
				<path class="st1" d="M134.7,141.1c0.4,0,0.9,0.2,1.1,0.3c1.1,0.4,3.2,1,3.5,2.1c0.1,0.2-0.3,0.7-0.5,0.7c0,0,0,0,0,0
					c-2.1-0.9-3.3-1.3-5.3-2c-0.3-0.1,0.7-0.9,0.8-1C134.4,141.1,134.5,141.1,134.7,141.1 M134.7,139.7c-0.3,0-0.6,0-0.8,0.1
					c0,0-1.8,0.9-1.8,2.2c0,0.6,0.4,1.2,1,1.4l0.4,0.1c1.7,0.6,2.9,1,4.8,1.9c0.2,0.1,0.4,0.1,0.6,0.1c0.5,0,1-0.3,1.4-0.8
					c0.2-0.3,0.6-0.9,0.4-1.7c-0.4-1.7-2.4-2.4-3.8-2.8c-0.2-0.1-0.4-0.2-0.6-0.2C135.9,139.9,135.3,139.7,134.7,139.7L134.7,139.7z
					"/>
			</g>
		</g>
		<g>
			<g>
				<path class="st5" d="M181.8,151.1c-0.3,0-0.5-0.1-0.7-0.4c-0.3-0.5-0.1-1.7,0-1.9c0.2-0.4,0.8-0.8,1.6-1.2
					c0.2-0.1,0.4-0.2,0.6-0.3c0.9-0.4,1.9-0.8,2.9-0.8c0.5,0,0.8,0.1,1.2,0.3c0.4,0.3,0.5,0.9,0.5,1.3c-0.1,0.6-0.4,0.7-0.6,0.8
					c-2,0.7-3.1,1.2-4.8,1.9l-0.5,0.2L181.8,151.1z"/>
				<path class="st1" d="M186.2,147.3c0.3,0,0.6,0.1,0.8,0.2c0.2,0.1,0.3,0.8,0.1,0.9c-2.2,0.8-3.4,1.3-5.3,2.1c0,0,0,0,0,0
					c-0.2,0-0.1-1.2,0-1.3c0.2-0.4,0.9-0.7,1.2-0.8C183.8,148,185.2,147.3,186.2,147.3 M186.2,145.9c-1.1,0-2.2,0.5-3.1,0.9
					c-0.2,0.1-0.4,0.2-0.6,0.3c-1,0.4-1.6,0.9-2,1.5c-0.1,0.3-0.5,1.8,0,2.6c0.3,0.4,0.7,0.7,1.3,0.7c0.2,0,0.4,0,0.6-0.1l0.4-0.2
					c1.7-0.7,2.8-1.2,4.8-1.9c0.6-0.2,1-0.7,1-1.4c0.1-0.5,0-1.5-0.8-2C187.3,146,186.8,145.9,186.2,145.9L186.2,145.9z"/>
			</g>
		</g>
		<g>
			<g>
				<path class="st5" d="M145.3,149.2c-0.3,0-0.5-0.1-0.7-0.4c-0.3-0.6,0.1-1.8,0.2-1.9c0.3-0.4,0.8-0.8,1.7-1
					c0.2-0.1,0.4-0.1,0.6-0.2c0.8-0.3,1.8-0.6,2.7-0.6c0.6,0,1,0.1,1.4,0.4c0.4,0.3,0.5,1,0.4,1.3c-0.1,0.5-0.5,0.7-0.6,0.7
					c-2,0.5-3.3,1-5,1.5l-0.5,0.2L145.3,149.2z"/>
				<path class="st1" d="M149.8,145.7c0.4,0,0.7,0.1,1,0.3c0.2,0.1,0.2,0.8,0,0.9c-2.2,0.6-3.5,1-5.4,1.7c0,0,0,0,0,0
					c-0.3,0,0-1.2,0.1-1.3c0.2-0.4,0.9-0.6,1.3-0.7C147.5,146.3,148.8,145.7,149.8,145.7 M149.8,144.3c-1,0-2,0.4-2.9,0.7
					c-0.2,0.1-0.4,0.1-0.6,0.2c-1.5,0.5-1.9,1.1-2.1,1.3c-0.1,0.2-0.7,1.8-0.2,2.7c0.3,0.5,0.8,0.8,1.3,0.8c0.2,0,0.3,0,0.5-0.1
					l0.4-0.1c1.7-0.6,2.9-1,4.9-1.5c0.6-0.2,1-0.6,1.1-1.3c0.1-0.5,0.1-1.5-0.7-2C151.1,144.5,150.5,144.3,149.8,144.3L149.8,144.3z
					"/>
			</g>
		</g>
		<g>
			<g>
				<path class="st5" d="M195.4,151.7c-0.3,0-0.5-0.1-0.7-0.4c-0.3-0.6,0-1.8,0.1-1.9c0.3-0.4,0.8-0.8,1.7-1
					c0.2-0.1,0.4-0.1,0.6-0.2c0.8-0.3,1.8-0.6,2.7-0.6c0.6,0,1,0.1,1.4,0.4c0.4,0.3,0.5,1,0.4,1.3c-0.1,0.5-0.5,0.7-0.6,0.7
					c-2,0.5-3.3,0.9-4.9,1.5l-0.5,0.2L195.4,151.7z"/>
				<path class="st1" d="M199.8,148.2c0.4,0,0.7,0.1,1,0.3c0.2,0.1,0.2,0.8,0,0.9c-2.2,0.6-3.5,1-5.4,1.7c0,0,0,0,0,0
					c-0.2,0,0-1.2,0.1-1.3c0.2-0.4,0.9-0.6,1.3-0.7C197.6,148.7,198.8,148.2,199.8,148.2 M199.8,146.8c-1,0-2,0.4-2.9,0.7
					c-0.2,0.1-0.4,0.1-0.6,0.2c-1,0.3-1.7,0.8-2.1,1.3c-0.2,0.3-0.7,1.8-0.2,2.7c0.3,0.5,0.8,0.8,1.3,0.8c0.2,0,0.3,0,0.5-0.1
					l0.4-0.1c1.7-0.6,2.9-1,4.9-1.5c0.6-0.2,1-0.6,1.1-1.3c0.1-0.5,0.1-1.5-0.7-2C201.2,147,200.5,146.8,199.8,146.8L199.8,146.8z"
					/>
			</g>
		</g>
		<g>
			<g>
				<path class="st5" d="M177.9,141.8c-0.3,0-0.6-0.2-0.7-0.4c-0.3-0.6,0.3-1.8,0.4-2c0.3-0.4,0.9-0.6,1.8-0.8
					c0.2,0,0.4-0.1,0.7-0.1c0.6-0.1,1.4-0.2,2.1-0.2c0.9,0,1.5,0.2,2,0.7c0.4,0.4,0.3,1,0.2,1.4c-0.2,0.5-0.6,0.6-0.7,0.6
					c-2.1,0.2-3.3,0.4-5.2,0.8L177.9,141.8L177.9,141.8z"/>
				<path class="st1" d="M182.2,138.9c0.6,0,1.1,0.1,1.5,0.5c0.2,0.2,0.1,0.8-0.1,0.9c-2.3,0.2-3.6,0.5-5.6,0.8c0,0,0,0,0,0
					c-0.3,0,0.2-1.2,0.3-1.3c0.3-0.3,1-0.5,1.4-0.5C180.2,139.2,181.3,138.9,182.2,138.9 M182.2,137.5c-0.8,0-1.6,0.1-2.2,0.3
					c-0.2,0-0.5,0.1-0.6,0.1c-1.1,0.1-1.8,0.5-2.2,1c-0.1,0.1-1,1.7-0.5,2.7c0.2,0.5,0.8,0.8,1.3,0.8h0.1l0.1,0l0.4-0.1
					c1.8-0.3,3-0.5,5.1-0.8c0.6-0.1,1.1-0.5,1.3-1.1c0.2-0.5,0.3-1.5-0.3-2.1C184,137.8,183.2,137.5,182.2,137.5L182.2,137.5z"/>
			</g>
		</g>
		<g>
			<g>
				<path class="st5" d="M163.7,147.2L163.7,147.2c-2.2-0.4-3.4-0.6-5.2-0.8l-0.4-0.1c-0.3,0-0.6-0.3-0.7-0.6
					c-0.2-0.7,0.9-1.8,1-1.8c0.3-0.2,0.7-0.3,1.2-0.3c0.3,0,0.6,0,0.8,0.1c0.2,0,0.4,0.1,0.7,0.1c1.4,0.2,3.1,0.4,3.8,1.6
					c0.3,0.5-0.1,1.2-0.1,1.3C164.3,147.1,163.9,147.2,163.7,147.2L163.7,147.2z"/>
				<path class="st1" d="M159.5,144.4c0.3,0,0.5,0,0.7,0.1c1.2,0.2,3.4,0.2,3.9,1.3c0.1,0.2-0.1,0.8-0.4,0.8c0,0,0,0,0,0
					c-2.3-0.4-3.6-0.6-5.6-0.8c-0.3,0,0.5-1.1,0.6-1.1C158.9,144.4,159.2,144.4,159.5,144.4 M159.5,143c-0.6,0-1.1,0.1-1.5,0.4
					c0,0-1.5,1.3-1.3,2.6c0.1,0.6,0.6,1.1,1.3,1.1l0.4,0.1c1.8,0.2,3,0.4,5.1,0.8l0.1,0l0.1,0c0.6,0,1.1-0.3,1.4-0.9
					c0.3-0.5,0.5-1.3,0.2-2c-0.8-1.5-2.8-1.8-4.3-1.9c-0.2,0-0.5-0.1-0.6-0.1C160.2,143,159.8,143,159.5,143L159.5,143z"/>
			</g>
		</g>
		<g>
			<g>
				<path class="st5" d="M154.6,141.4L154.6,141.4c-2.2-0.3-3.4-0.4-5.3-0.5l-0.4,0c-0.3,0-0.6-0.2-0.7-0.6
					c-0.2-0.7,0.7-1.8,0.9-1.9c0.3-0.2,0.8-0.3,1.4-0.3c0.2,0,0.4,0,0.6,0c0.2,0,0.4,0,0.7,0c1.4,0.1,3.1,0.2,3.8,1.4
					c0.3,0.4,0.1,1-0.1,1.3C155.2,141.3,154.8,141.4,154.6,141.4L154.6,141.4z"/>
				<path class="st1" d="M150.5,138.8c0.2,0,0.4,0,0.5,0c1.2,0.1,3.4,0,4,1.1c0.1,0.2-0.1,0.8-0.3,0.8c0,0,0,0,0,0
					c-2.3-0.3-3.6-0.4-5.6-0.5c-0.3,0,0.4-1.1,0.5-1.2C149.7,138.8,150.1,138.8,150.5,138.8 M150.5,137.4c-0.8,0-1.3,0.2-1.8,0.5
					c0,0-1.5,1.4-1.1,2.6c0.2,0.6,0.7,1,1.3,1.1l0.4,0c1.8,0.1,3.1,0.2,5.2,0.5l0.1,0l0.1,0c0.6,0,1.1-0.3,1.4-0.9
					c0.3-0.5,0.5-1.3,0.1-2c-0.9-1.5-2.9-1.6-4.4-1.7c-0.2,0-0.5,0-0.6,0C150.9,137.4,150.7,137.4,150.5,137.4L150.5,137.4z"/>
			</g>
		</g>
		<g>
			<g>
				<path class="st5" d="M175.1,148.5c-0.2,0-0.3-0.1-0.5-0.2c-1.7-1.3-2.8-1.9-4.3-2.9l-0.3-0.2c-0.3-0.2-0.4-0.5-0.3-0.8
					c0.2-0.7,1.5-1.2,1.6-1.2c0.1,0,0.1,0,0.2,0c0.5,0,1,0.2,1.7,0.7c0.2,0.1,0.4,0.2,0.6,0.4c1.2,0.7,2.7,1.7,2.7,3
					c0,0.3-0.2,0.6-0.4,0.8C175.9,148.2,175.6,148.5,175.1,148.5L175.1,148.5z"/>
				<path class="st1" d="M171.5,143.9c0.4,0,1,0.3,1.3,0.5c1,0.7,2.9,1.6,3,2.8c0,0.2-0.4,0.6-0.6,0.6c0,0-0.1,0-0.1,0
					c-1.9-1.4-3-2-4.7-3.2C170.1,144.5,171.3,143.9,171.5,143.9C171.4,143.9,171.4,143.9,171.5,143.9 M171.5,142.5
					c-0.1,0-0.2,0-0.3,0c0,0-2,0.5-2.2,1.8c-0.1,0.6,0.1,1.2,0.6,1.5l0.3,0.2c1.6,1,2.6,1.7,4.3,2.9c0.3,0.2,0.6,0.3,0.9,0.3
					c0.7,0,1.2-0.4,1.4-0.7c0.4-0.4,0.6-0.9,0.6-1.3c-0.1-1.7-1.8-2.8-3-3.6c-0.2-0.1-0.4-0.2-0.5-0.4
					C172.8,142.8,172.1,142.5,171.5,142.5L171.5,142.5z"/>
			</g>
		</g>
		<g>
			<g>
				<path class="st5" d="M163.2,139.4c-0.3,0-0.6-0.2-0.7-0.5c-0.3-0.6,0.4-1.8,0.5-2c0.3-0.4,1-0.6,1.8-0.7c0.2,0,0.4-0.1,0.7-0.1
					c0.6-0.1,1.2-0.2,1.9-0.2c1,0,1.7,0.2,2.2,0.7c0.4,0.4,0.3,1,0.1,1.4c-0.2,0.5-0.6,0.6-0.8,0.6c-2.1,0.1-3.4,0.3-5.1,0.5
					L163.2,139.4L163.2,139.4z"/>
				<path class="st1" d="M167.3,136.7c0.7,0,1.3,0.1,1.7,0.5c0.1,0.2,0.1,0.8-0.2,0.8c-2.3,0.2-3.6,0.3-5.6,0.6c0,0,0,0,0,0
					c-0.3,0,0.2-1.2,0.3-1.2c0.3-0.3,1-0.4,1.4-0.5C165.5,136.9,166.5,136.7,167.3,136.7 M167.3,135.3c-0.7,0-1.4,0.1-2,0.2
					c-0.2,0-0.5,0.1-0.6,0.1c-1.6,0.2-2.1,0.7-2.3,0.9c-0.1,0.1-1.1,1.7-0.6,2.7c0.2,0.5,0.8,0.9,1.3,0.9h0.1l0.1,0l0.4-0.1
					c1.8-0.2,3-0.4,5.1-0.5c0.6,0,1.1-0.4,1.4-1c0.2-0.5,0.3-1.4-0.3-2.1C169.4,135.7,168.5,135.3,167.3,135.3L167.3,135.3z"/>
			</g>
		</g>
	</g>
	<g class="st9">
		<g>
			<path class="st10" d="M124.7,155.3c-5.9,2.7-7.5,9-5.6,14.9c0.6,1.8,3.2,0.6,2.6-1.1c-1.4-4.3-0.4-9.2,4.1-11.1
				C127.5,157.2,126.4,154.5,124.7,155.3L124.7,155.3z"/>
		</g>
		<g>
			<path class="st10" d="M122.2,174.9c0,0,0,0.1,0.1,0.1c0.3,0.7,1.2,1.1,1.9,0.8c0.7-0.3,1.1-1.2,0.8-1.9c0,0,0-0.1-0.1-0.1
				c-0.3-0.7-1.2-1.1-1.9-0.8C122.2,173.4,121.9,174.2,122.2,174.9L122.2,174.9z"/>
		</g>
	</g>
	<g>
		
			<ellipse transform="matrix(8.891163e-03 -1 1 8.891163e-03 -24.5245 318.3011)" class="st11" cx="148.3" cy="171.5" rx="1.1" ry="4.4"/>
	</g>
	<g>
		
			<ellipse transform="matrix(8.871061e-03 -1 1 8.871061e-03 10.2497 353.9318)" class="st11" cx="183.7" cy="171.8" rx="1.1" ry="4.4"/>
	</g>
	<path class="st12" d="M179.1,158.5c0,0,3.8-1.4,6.5,1.7"/>
	<path class="st12" d="M153.1,158.3c0,0-3.7-1.4-6.5,1.6"/>
	<path class="st12" d="M148.7,168.8c0.5-2.4,1.7-4.1,3-4c1.3,0,2.5,1.7,3,4"/>
	<path class="st12" d="M177.5,169c0.5-2.4,1.7-4.1,3-4c1.3,0,2.5,1.7,3,4"/>
	<path class="st12" d="M169.3,169.6c0,1.8-1.5,3.2-3.3,3.2c-1.8,0-3.2-1.5-3.2-3.3"/>
	<g>
		<path class="st11" d="M170.4,173.9c-0.2,0-0.4-0.1-0.6-0.2c-0.9-0.4-1.7-1-1.5-1.7c0.1-0.3,0.3-0.7,0.5-1.1l0.2-0.3
			c0.2-0.4,0.5-0.6,0.8-0.5c0.2,0,0.3,0.1,0.5,0.2l0.3,0.2c0.5,0.3,1.2,0.7,1.4,1.4c0.1,0.4,0,0.8-0.2,1.2
			C171.4,173.7,170.9,174,170.4,173.9L170.4,173.9z"/>
		<path class="st1" d="M169.6,170.6c0.2,0,0.3,0.2,0.6,0.3c0.6,0.4,1.8,0.9,1.2,2c-0.2,0.4-0.6,0.6-1,0.6c-0.1,0-0.3-0.1-0.5-0.1
			c-0.2-0.1-1.4-0.7-1.3-1.2c0.1-0.4,0.5-1,0.6-1.3C169.4,170.6,169.5,170.6,169.6,170.6 M169.7,169.7c-0.3,0-0.8,0-1.2,0.8
			c0,0.1-0.1,0.2-0.1,0.3c-0.3,0.5-0.5,0.9-0.6,1.2c-0.3,1.2,1.1,1.9,1.7,2.2c0.2,0.1,0.5,0.2,0.7,0.2c0.7,0.1,1.4-0.3,1.7-1
			c0.3-0.6,0.3-1.2,0.2-1.5c-0.2-0.9-1.1-1.4-1.6-1.7l-0.1-0.1c-0.1,0-0.1-0.1-0.2-0.1C170.2,169.8,170,169.7,169.7,169.7
			L169.7,169.7z"/>
	</g>
	<line class="st13" x1="169" y1="171.3" x2="170.3" y2="172.1"/>
</g>
<g>
	<path class="st12" d="M233.6,178.5c-0.5-0.4-0.9-0.9-1.1-1.6c0-0.1-0.1-0.6-0.3-1.4c-0.3-2.3-0.5-4.6-0.6-6.9
		c-0.1-2.3-0.2-5.1-0.2-8.2v-6v-3.1c0.1-1.4,0.2-3.5,0.5-6.3l0.3-2.8l0.2-0.8c0.2-0.6,0.6-1.1,1.1-1.5c0.5-0.4,1.1-0.6,1.6-0.6
		c0.6,0,1.2,0.2,1.7,0.6c0.5,0.4,0.8,1,1,1.6c0.1,0.5,0.2,1.1,0.2,1.8c0,0.8,0,2,0,3.5c-0.1,1.5-0.1,2.5-0.1,3.2
		c-0.1,2.6-0.1,4.3-0.1,5.1l0.1,1.2l2.2-1.4c1.2-0.8,2.8-1.3,4.5-1.3c1.7,0,3.3,0.4,4.8,1.3c1.5,0.9,2.5,2.2,3.2,3.9
		c0.5,1.4,1,3.2,1.3,5.3c0.3,2.1,0.5,4.3,0.5,6.4c0,1.1-0.1,2.8-0.2,5c0,0.5-0.1,1-0.3,1.5c-0.2,0.6-0.6,1-1,1.4
		c-0.5,0.3-1,0.5-1.6,0.5c-0.7,0-1.3-0.2-1.8-0.6c-0.5-0.4-0.8-0.9-0.9-1.6c-0.1-0.5-0.1-1.2-0.2-1.9c0-0.7-0.1-1.2-0.1-1.4
		l-0.2-2.3c-0.2-3.1-0.4-5.4-0.5-6.7c-0.1-0.8-0.4-1.8-1-3c-0.2-0.5-0.5-0.8-0.8-1.1c-0.4-0.2-0.8-0.4-1.3-0.4c-0.3,0-0.6,0.1-1,0.2
		c-1.1,0.5-1.8,1.1-2.4,1.9c-1.1,1.6-1.8,3.4-2.1,5.4c-0.4,2.3-0.6,4.1-0.6,5.6c0,0.8,0.1,1.5,0.2,2.3c0,0.1,0.1,0.2,0.1,0.4
		c0,1-0.3,1.7-0.9,2.4c-0.6,0.6-1.3,1-2.2,1C234.7,179.1,234.1,178.9,233.6,178.5z"/>
	<path class="st12" d="M275,176.4l-0.5-0.7c-0.2,0.1-0.4,0.2-0.5,0.4c-0.2,0.1-0.4,0.3-0.5,0.4c-1.7,1.2-3.6,1.8-5.6,1.8
		c-1.6,0-3.1-0.4-4.5-1.2c-1.4-0.8-2.5-1.9-3.3-3.5c-1.1-2.3-1.7-4.4-1.7-6.3c0-1.5,0-3.7,0.2-6.6l0.1-1.6c0.1-0.8,0.3-1.9,0.5-3.3
		c0.1-0.5,0.4-1,0.9-1.6c0.7-0.9,1.6-1.2,2.7-1.1c1.2,0.2,2,0.9,2.2,1.9c0.2,0.5,0.2,1,0.2,1.4l-0.4,7.3c0,0.4-0.1,1-0.1,1.8
		c0,1.6,0.2,2.9,0.5,4c0.1,0.6,0.4,1.2,0.8,1.8c0.4,0.8,1,1.2,1.8,1.2c0.4,0,0.7-0.1,1.2-0.2c1-0.4,1.8-1,2.2-1.8
		c0.7-1.1,1.2-2.1,1.5-3c0.5-1.6,0.8-3.3,0.8-4.9l-0.1-6.1c0-0.5,0.1-1.1,0.4-1.6c0.5-1,1.4-1.5,2.6-1.5c1.4,0,2.3,0.6,2.8,1.7
		c0.1,0.5,0.2,0.9,0.3,1.2c0.2,2.4,0.3,5,0.4,7.8c0.1,2.8,0.1,5.6,0.2,8.2v1.8c0,0.5-0.1,1-0.2,1.5c-0.4,1.3-1.3,2-2.7,2
		C276.3,177.4,275.6,177.1,275,176.4z"/>
	<path class="st12" d="M302.5,177.7c-0.3-0.5-0.5-1-0.6-1.5c-0.1-0.5-0.2-1.1-0.2-1.8c-0.2-4.7-0.4-8.3-0.5-10.7
		c0-0.7-0.2-1.8-0.6-3.2c-0.1-0.5-0.4-0.8-0.6-1c-0.3-0.2-0.7-0.2-1.2-0.2c-1.1,0.1-2,0.5-2.7,1.3c-1.5,1.6-2.4,3.4-2.9,5.4
		c-0.5,2.1-0.8,4.7-0.9,8c0,0.8,0,1.4-0.1,1.8c-0.1,0.8-0.5,1.4-1.1,1.9c-0.6,0.5-1.3,0.7-2,0.7c-0.8,0-1.4-0.3-2-0.7
		c-0.6-0.4-0.9-1-1.1-1.8c-0.1-0.8-0.3-1.9-0.4-3.3c-0.8-5.8-1.2-10.5-1.3-14v-2.4l0.1-0.8c0.1-0.9,0.5-1.7,1.1-2.3
		c0.6-0.6,1.3-0.9,2.1-0.9c0.8,0,1.6,0.3,2.1,0.8c0.6,0.6,0.9,1.3,1,2.3l0.1,1l0.4,0.3c0.5-0.7,0.8-1.1,1-1.2c2-2,4.5-3,7.6-3
		c1.7,0,3.3,0.5,4.7,1.6c1.4,1.1,2.4,2.4,3,4.2c0.5,1.5,0.8,3.5,1.1,6c0.2,1.2,0.3,2.8,0.3,4.5l-0.1,3.5c-0.1,1.6-0.1,2.8-0.1,3.6
		c0,0.3-0.1,0.8-0.3,1.4c-0.2,0.7-0.6,1.2-1.1,1.5s-1.1,0.5-1.8,0.5C304.1,179.2,303.2,178.7,302.5,177.7z"/>
	<path class="st12" d="M317.2,185.8c-0.4-0.4-0.7-0.8-0.9-1.2c-0.3-0.5-0.4-1-0.4-1.3c0-0.7,0.3-1.3,0.8-1.7c0.5-0.4,1-0.5,1.5-0.5
		c0.5,0,1.1,0.2,1.6,0.7c0.8,0.8,2.1,1.4,3.7,1.8c0.4,0.1,0.8,0.1,1,0.1c1.2,0,2.1-0.5,2.7-1.5c0.5-0.7,0.8-1.2,1-1.6
		c0.2-0.7,0.4-1.4,0.5-2.2c0.1-0.8,0.2-1.7,0.2-2.6l-0.7,0.5c-1.5,1.4-3.1,2-4.9,2c-1.1,0-2.3-0.3-3.6-0.8c-1.1-0.4-2-1-2.8-1.8
		c-2.8-2.7-4.2-5.8-4.2-9.1c0-0.3,0-0.9,0.1-1.6c0.6-4,2.2-7.1,4.7-9.4c2-1.9,4.3-2.8,7-2.8c2.3,0,4.2,0.7,5.6,2.2
		c0.2,0.2,0.5,0.4,0.9,0.4c0.8,0.2,1.4,0.5,1.8,0.8c0.4,0.4,0.7,0.9,0.8,1.7c0.1,0.8,0.2,2.1,0.4,3.8c0.1,1.2,0.1,2,0.2,2.5
		c0.1,1,0.1,1.7,0.2,2.2c0.3,3.4,0.4,6,0.4,7.7c0,1.1,0,1.8-0.1,2.4c-0.2,2-0.4,3.8-0.8,5.3c-0.5,2.5-2.1,4.6-4.7,6.2
		c-1.1,0.7-2.4,1-4.1,1C322,189.1,319.3,188,317.2,185.8z M323.1,172.6c0.9,0,1.7-0.5,2.4-1.6c1.2-1.7,2-3.5,2.4-5.4
		c0.1-0.5,0.2-1.1,0.3-2h-0.1c-0.1-1.3-0.1-2.3-0.2-3c0-0.3-0.1-0.5-0.2-0.6c-1-1.1-2-1.6-3.2-1.6c-1.1,0-2.1,0.5-3.1,1.4
		c-1.8,1.8-2.7,4.1-2.7,6.9c0,1.7,0.7,3.3,2.2,4.7C321.7,172.2,322.4,172.6,323.1,172.6z"/>
	<path class="st12" d="M341.5,178.7c-0.6-0.4-0.9-0.9-1.1-1.5c-0.6-2.7-1-4.9-1.1-6.6c-0.3-3.1-0.4-5.8-0.4-8.1
		c0-1.9,0.1-4.1,0.3-6.6c0.1-0.8,0.2-1.4,0.3-1.8c0.1-0.7,0.5-1.2,1.1-1.6c0.6-0.4,1.3-0.6,2.1-0.6c0.7,0,1.4,0.2,1.9,0.5
		c0.5,0.4,0.9,0.9,1.2,1.5l0.3,0.7c0.2,0,0.8-0.1,1.7-0.3c0.9-0.2,1.7-0.2,2.5-0.2c1.1,0,2.1,0.3,3,0.8c0.5,0.3,0.9,0.7,1.2,1.1
		c0.3,0.4,0.4,0.9,0.4,1.3c0,0.2-0.1,0.5-0.2,0.8c-0.4,1.3-1.6,1.9-3.5,1.9c-1.9,0-3.5,0.7-4.9,2.2c-0.3,0.3-0.4,0.7-0.3,1l0.5,10
		c0,0.4,0.1,0.9,0.1,1.5c0.1,0.6,0.1,1.2,0,1.6c0,0.8-0.3,1.5-0.9,2s-1.4,0.8-2.3,0.8C342.7,179.2,342,179,341.5,178.7z"/>
	<path class="st12" d="M363.4,187.4c-1.2-1-2.1-2.3-2.7-3.9c-0.1-0.4-0.2-0.8-0.2-1.3c0-1,0.4-1.7,1.1-2.2c0.5-0.3,0.9-0.4,1.4-0.4
		c0.7,0,1.4,0.3,2,0.9c0.2,0.2,0.4,0.4,0.6,0.7c0.2,0.2,0.3,0.4,0.4,0.5c0.4,0.5,1,1,1.8,1.3c0.7,0.3,1.5,0.4,2.2,0.4
		c1.1,0,2-0.3,2.6-0.8c0.2-0.1,0.4-0.3,0.7-0.7c1.5-2.3,2.1-4.8,2-7.5c-0.1,0.1-0.6,0.3-1.4,0.8c-0.8,0.5-1.5,0.9-2.2,1.1
		c-0.8,0.3-1.6,0.4-2.4,0.4c-1.8,0-3.5-0.6-5.1-1.7c-1.6-1.1-2.8-2.5-3.5-4.1c-0.7-1.5-1.2-3.1-1.3-4.7c-0.2-3.4-0.3-6.5-0.3-9.2
		c0-0.9,0.2-1.9,0.7-2.8c0.2-0.5,0.5-1,1-1.3c0.4-0.3,0.9-0.5,1.5-0.5c0.7,0,1.3,0.2,1.8,0.6c0.5,0.4,0.8,1,1,1.8
		c0.1,0.5,0.2,1.1,0.2,1.8c0,0.7,0,1.1,0,1.4l0.2,2.8c0,0.6,0.1,1.4,0.1,2.3c0,0.9,0.1,2,0.2,3.3c0.1,1.5,0.9,2.6,2.2,3.4
		c0.5,0.3,1,0.4,1.5,0.4c0.6,0,1.2-0.2,1.9-0.7c1-0.8,1.8-2,2.3-3.7c0.5-1.8,0.8-3.8,0.8-6c0-1.3,0-2.2-0.1-2.8l-0.2-1.2
		c0-1,0.2-1.8,0.8-2.4c0.5-0.6,1.3-1,2.1-1c0.6,0,1.1,0.2,1.6,0.6c0.5,0.4,0.8,0.9,1.1,1.6c0.5,1.7,0.9,3.1,0.9,4.3
		c0.6,6.8,0.9,12.2,0.9,16.2c0,3.1-0.8,6.3-2.5,9.5c-1,1.9-2.2,3.2-3.8,4c-1.6,0.8-3.3,1.2-5.1,1.2
		C367.2,189.7,365,188.9,363.4,187.4z"/>
	<path class="st12" d="M241.3,221.3c-0.5-0.3-0.8-0.8-1-1.4c-0.1-0.2-0.1-0.7-0.2-1.4l-0.7-16.4l-0.1-0.5c-0.1,0-0.3,0-0.4,0
		c-0.2,0-0.4,0-0.7,0c-0.9,0-2.3,0-4.1-0.1c-0.3,0-0.6-0.1-1.2-0.3c-1.1-0.5-1.6-1.3-1.6-2.5c0-1.1,0.5-1.8,1.5-2.4
		c0.6-0.3,1.4-0.4,2.2-0.5l4.2-0.3v-1.9v-1.2c0-0.3,0-0.6,0-1c0-0.4,0-0.8,0-1.4c0.1-0.7,0.2-1.4,0.5-2c0.5-0.9,1.3-1.4,2.4-1.4
		c0.6,0,1.2,0.2,1.6,0.5c0.5,0.4,0.8,0.9,0.9,1.5c0.1,0.5,0.2,1.2,0.2,1.9c0,1.1,0.1,2.7,0.1,4.9l4.1,0.2c0.3,0,0.6,0,1,0.1
		c1.1,0.3,1.7,1,2,2c0,0.1,0.1,0.3,0.1,0.6c0,0.8-0.3,1.4-0.9,2c-0.7,0.7-1.7,1-3,1c-0.6,0-1.6,0-2.9,0.1c0,0.3,0,0.6,0,0.9
		c0,0.4,0,0.8,0,1.2c0.1,1.7,0.1,2.9,0.2,3.7c0,0.7,0.1,1.8,0.2,3.3c0.1,1.5,0.1,2.9,0.1,4.1c0,1.2-0.1,2.4-0.2,3.6
		c0,0.6-0.1,1.2-0.4,1.7c-0.2,0.5-0.5,0.9-0.9,1.2c-0.4,0.3-0.9,0.4-1.4,0.4C242.3,221.8,241.8,221.6,241.3,221.3z"/>
	<path class="st12" d="M256.3,190.6c0-1.4,0.6-2.4,1.9-2.9c0.3-0.1,0.6-0.2,1.1-0.3c0.4-0.1,0.7-0.2,1-0.2c0.9,0,1.7,0.3,2.3,0.9
		c0.6,0.6,0.9,1.3,0.9,2.2c0,0.9-0.3,1.7-1,2.4c-0.7,0.7-1.6,1.1-2.7,1.1c-0.6,0-1.2-0.2-1.8-0.5
		C256.8,192.7,256.3,191.8,256.3,190.6z M258.5,221.6c-0.5-0.4-0.8-1-0.9-1.7c-0.3-1.4-0.4-2.9-0.5-4.4l-0.2-3.2
		c0-0.7-0.1-1.9-0.2-3.8c-0.1-1.8-0.1-3.4-0.1-4.8c0-1.3,0.1-2.9,0.4-4.7c0-0.4,0.3-1,0.7-1.8c0.5-0.7,1.2-1.1,2-1.1
		c1.5,0,2.4,0.7,2.8,2.1c0.1,0.5,0.2,1,0.2,1.6c0.1,2.5,0.2,5.8,0.3,10.1s0.1,7,0.1,8.3c0,0.7-0.1,1.2-0.2,1.6
		c-0.2,0.8-0.5,1.4-1,1.8c-0.5,0.4-1,0.6-1.7,0.6C259.6,222.2,259,222,258.5,221.6z"/>
	<path class="st12" d="M293,221c-0.5-0.5-0.8-1-0.8-1.8c0-0.8,0-1.7,0.1-2.6c0.1-0.9,0.1-1.6,0.2-1.9c0.1-1.1,0.1-1.9,0.1-2.5
		c0-1.9-0.2-3.9-0.5-6.2c-0.4-2.4-1-3.6-1.6-3.6c-0.6,0-1.3,0.8-2.1,2.4c-0.5,1-0.9,2-1.1,3.1c-0.2,1.1-0.4,2.4-0.6,3.8
		c-0.1,0.7-0.1,1.1-0.1,1.4c0,0.4,0,1,0.1,1.8c0.1,1.1,0.1,2,0.1,2.6c0,0.2-0.1,0.4-0.1,0.7c0,0.3-0.1,0.5-0.2,0.9
		c-0.2,0.6-0.5,1.1-1.1,1.4c-0.5,0.3-1.1,0.5-1.8,0.5c-0.8,0-1.4-0.2-2-0.7s-0.9-1-0.9-1.8c-0.1-0.7-0.1-1.3-0.1-1.7
		c-0.1-1.9-0.3-3.3-0.4-4.3c-0.2-2.8-0.6-5.2-1.2-7.1c-0.6-1.9-1.2-2.8-1.8-2.8c-0.5,0-0.9,0.6-1.2,1.7c-0.3,1.1-0.5,2.8-0.6,5.1
		l-0.1,1.6c0,1,0,2.3,0.1,4.2c0.1,1.2,0.1,2.1,0.1,2.7l0.1,1.2c-0.1,0.7-0.4,1.3-0.9,1.8s-1.2,0.7-2.1,0.7c-0.6,0-1.2-0.2-1.6-0.5
		s-0.8-0.8-1-1.3c-0.1-0.1-0.1-0.3-0.2-0.6c-0.1-0.2-0.1-0.4-0.1-0.6l-0.5-3c-0.5-2.8-0.9-5.3-1.1-7.4c-0.1-1.2-0.3-3.2-0.3-5.8
		c0-1.1,0-1.9-0.1-2.5c0-0.5,0.1-1,0.3-1.4c0.2-0.5,0.6-1,1-1.3c0.5-0.3,1-0.4,1.5-0.4c0.7,0,1.4,0.2,1.9,0.6
		c0.1,0.1,0.3,0.3,0.7,0.7c0.8-0.8,1.7-1.4,2.5-1.8c0.8-0.4,1.6-0.6,2.5-0.6c0.5,0,0.9,0.1,1.4,0.2c1.1,0.3,2.1,0.7,2.8,1.5
		c0.7,0.7,1.4,1.7,2.1,2.8c0.7-0.9,1.2-1.5,1.3-1.7c1.4-1.6,3-2.4,5-2.4c1.2,0,2.3,0.3,3.3,0.8c1.1,0.5,1.9,1.3,2.4,2.1
		c1,1.5,1.7,3.3,2.1,5.4c0.3,1.5,0.4,3.2,0.4,5.2c0,1.4-0.1,2.9-0.3,4.7c-0.1,1.4-0.4,3-0.8,4.8c0,0.2-0.1,0.5-0.3,1
		c-0.3,0.5-0.6,0.9-1.1,1.2c-0.5,0.3-0.9,0.5-1.5,0.5C294.1,221.7,293.5,221.5,293,221z"/>
	<path class="st12" d="M315.3,221.5c-0.8,0-1.7-0.1-2.5-0.2c-2.6-0.4-4.7-1.5-6.3-3.3s-2.7-3.9-3.2-6.5c-0.3-1-0.4-2.2-0.4-3.4
		c0-1.7,0.3-3.6,0.9-5.5l0.4-0.9c1-2.2,2.3-3.9,3.9-5c1.7-1.1,3.5-1.6,5.5-1.6c2,0,3.9,0.5,5.6,1.4c2.2,1.2,3.7,2.8,4.6,4.7
		c0.5,1,0.7,2,0.7,3c0,1.7-0.7,3.2-2,4.5c-2,2-4.4,3-7.2,3c-0.8,0-1.4,0-1.8-0.1l-2.5-0.4c-0.7-0.1-1.2-0.2-1.4-0.3
		c0.1,1.3,0.7,2.4,1.8,3.3c1.1,0.9,2.3,1.3,3.7,1.3c1.4,0,2.6-0.4,3.7-1.2l1.4-0.8c0.5-0.3,1-0.4,1.5-0.4c0.8,0,1.4,0.3,1.9,0.9
		c0.4,0.5,0.6,1.1,0.6,1.7c0,0.6-0.2,1.1-0.5,1.6c-1.8,2.3-3.9,3.7-6.5,4C316.3,221.5,315.7,221.5,315.3,221.5z M318.1,205.1
		c0.3-0.2,0.4-0.5,0.4-0.7c0-0.1-0.1-0.3-0.2-0.5c-0.7-1.1-1.8-1.9-3.2-2.4c-0.4-0.1-0.9-0.2-1.4-0.2c-1.1,0-2,0.4-2.8,1.1
		c-0.8,0.7-1.2,1.7-1.4,3c0.3,0,0.9,0.1,1.8,0.3c0.9,0.2,1.8,0.3,2.6,0.4c0.8,0.1,1.6,0.1,2.2,0C316.9,206,317.5,205.6,318.1,205.1z
		"/>
</g>
</svg>
